<svg width="162" height="38" viewBox="0 0 162 38" fill="none" xmlns="http://www.w3.org/2000/svg">
<path d="M7.33729 16.355H14.6746C16.8146 16.355 18.3636 16.8442 19.3215 17.8225C20.2998 18.7804 20.789 20.3294 20.789 22.4694V23.3866C20.789 25.5266 20.2998 27.0858 19.3215 28.0641C18.3636 29.022 16.8146 29.501 14.6746 29.501H1.83432V8.10055H18.8018V12.3806H7.33729V16.355ZM15.286 22.4694C15.286 21.2465 14.6746 20.6351 13.4517 20.6351H7.33729V25.2209H13.4517C14.6746 25.2209 15.286 24.6095 15.286 23.3866V22.4694ZM42.1882 29.501H36.6852V16.355L29.348 29.501H23.5393V8.10055H29.0422V21.2465L36.3795 8.10055H42.1882V29.501ZM44.6483 25.068C49.8456 25.3738 53.5142 25.5266 55.6542 25.5266C56.123 25.5266 56.4899 25.3941 56.7548 25.1292C57.0402 24.8438 57.1828 24.4668 57.1828 23.998V22.7751C57.1828 21.5522 56.5714 20.9408 55.3485 20.9408H48.0112V16.6607H54.7371C55.96 16.6607 56.5714 16.0493 56.5714 14.8264V14.215C56.5714 12.9921 55.96 12.3806 54.7371 12.3806H44.954V8.10055H56.2657C58.2631 8.10055 59.7305 8.55913 60.6681 9.47629C61.6056 10.3731 62.0744 11.7488 62.0744 13.6035C62.0744 14.8264 61.789 15.8251 61.2183 16.5996C60.6681 17.3537 59.9343 17.8836 59.0172 18.1893C60.6681 18.6377 61.789 19.7383 62.3801 21.4911C62.5839 22.1229 62.6858 22.8567 62.6858 23.6923V23.998C62.6858 25.9954 62.217 27.4628 61.2795 28.4004C60.3419 29.3379 58.8745 29.8067 56.8771 29.8067C53.4734 29.8067 49.3972 29.6029 44.6483 29.1953V25.068ZM84.0755 29.501H78.5725V20.7879H70.9295V29.501H65.4265V8.10055H70.9295V16.5079H78.5725V8.10055H84.0755V29.501ZM104.726 29.501H87.7585V8.10055H104.726V12.3806H93.2614V16.5079H102.28V20.7879H93.2614V25.2209H104.726V29.501ZM123.673 29.1953C119.128 29.6029 115.358 29.8067 112.362 29.8067C110.364 29.8067 108.897 29.3379 107.959 28.4004C107.022 27.4628 106.553 25.9954 106.553 23.998V14.215C106.553 12.0749 107.032 10.5259 107.99 9.56801C108.968 8.5897 110.527 8.10055 112.667 8.10055H123.673V12.3806H113.89C112.667 12.3806 112.056 12.9921 112.056 14.215V23.998C112.056 24.4668 112.189 24.8438 112.453 25.1292C112.739 25.3941 113.096 25.5266 113.524 25.5266C113.952 25.5266 114.42 25.5266 114.93 25.5266C115.439 25.5062 115.969 25.4858 116.52 25.4655C117.07 25.4451 117.62 25.4247 118.17 25.4043C118.741 25.3839 119.465 25.3432 120.341 25.282C121.238 25.2209 122.349 25.1496 123.673 25.068V29.1953Z" fill="white"/>
<path d="M136.226 8.45508H152.736V12.7369L145.704 29.8643H139.589L146.927 12.7369H136.226V8.45508Z" fill="white"/>
<path d="M154.355 25.5825H141.424L143.258 21.3006L148.771 8.45508H154.621L149.22 21.3006L154.355 21.3006V16.7129H159.859V21.3006H161.999V25.5825H159.859V29.8643H154.355V25.5825Z" fill="#FF6207"/>
<path d="M154.156 1.55796L156.14 9.79456L147.406 6.67863L154.156 1.55796Z" fill="#FF6207"/>
<path d="M149.726 6.06836L148.772 8.45474L154.158 9.06838L154.976 6.95473L149.726 6.06836Z" fill="#FF6207"/>
</svg>
