<svg width="31" height="32" viewBox="0 0 31 32" fill="none" xmlns="http://www.w3.org/2000/svg">
<g clip-path="url(#clip0_0_437)">
<path fill-rule="evenodd" clip-rule="evenodd" d="M2.17913 2.24942C0 4.49884 0 8.1192 0 15.36V16.64C0 23.8808 0 27.5011 2.17913 29.7506C4.35825 32 7.86548 32 14.88 32H16.12C23.1345 32 26.6417 32 28.8209 29.7506C31 27.5011 31 23.8808 31 16.64V15.36C31 8.1192 31 4.49884 28.8209 2.24942C26.6417 0 23.1345 0 16.12 0H14.88C7.86548 0 4.35825 0 2.17913 2.24942ZM5.23133 9.7334C5.39924 18.0534 9.42923 23.0534 16.4946 23.0534H16.8951V18.2934C19.4914 18.5601 21.4546 20.5201 22.2425 23.0534H25.9109C24.9034 19.2667 22.2554 17.1734 20.602 16.3734C22.2554 15.3867 24.5804 12.9867 25.1358 9.7334H21.8032C21.0799 12.3734 18.936 14.7734 16.8951 15.0001V9.7334H13.5625V18.9601C11.4958 18.4267 8.88673 15.8401 8.77048 9.7334H5.23133Z" fill="white"/>
</g>
<defs>
<clipPath id="clip0_0_437">
<rect width="31" height="32" fill="white"/>
</clipPath>
</defs>
</svg>
